<?xml version="1.0" encoding="UTF-8"?>
<!DOCTYPE svg PUBLIC "-//W3C//DTD SVG 1.1//EN" "http://www.w3.org/Graphics/SVG/1.1/DTD/svg11.dtd">
<svg xmlns="http://www.w3.org/2000/svg" version="1.1" width="1599" height="570" viewBox="0 0 1941 570" style="shape-rendering:geometricPrecision; text-rendering:geometricPrecision; image-rendering:optimizeQuality; fill-rule:evenodd; clip-rule:evenodd" xmlns:xlink="http://www.w3.org/1999/xlink">
<g><path style="opacity:0.991" fill="#191919" d="M 145.5,2.5 C 152.841,2.33368 160.174,2.50034 167.5,3C 112.76,48.4868 87.927,106.987 93,178.5C 99.6594,234.328 124.493,280.161 167.5,316C 99.0723,314.855 49.9057,283.688 20,222.5C -2.72364,163.944 4.6097,109.611 42,59.5C 69.1991,27.3157 103.699,8.31567 145.5,2.5 Z"/></g>
<g><path style="opacity:0.982" fill="#b33000" d="M 272.5,2.5 C 279.508,2.33371 286.508,2.50038 293.5,3C 240.748,47.3635 215.914,104.197 219,173.5C 224.753,231.18 249.586,278.68 293.5,316C 234.068,315.208 188.234,290.041 156,240.5C 125.793,185.65 126.126,130.984 157,76.5C 184.339,34.5715 222.839,9.90479 272.5,2.5 Z"/></g>
<g><path style="opacity:0.996" fill="#ff642d" d="M 397.5,2.5 C 463.485,-1.75737 514.318,23.576 550,78.5C 578.667,132.167 578.667,185.833 550,239.5C 514.551,294.308 464.051,319.474 398.5,315C 336.705,306.193 293.872,273.026 270,215.5C 248.257,148.978 262.09,91.1448 311.5,42C 336.283,20.4429 364.95,7.27619 397.5,2.5 Z"/></g>
<g><path style="opacity:0.969" fill="#000000" d="M 1402.5,63.5 C 1430.32,62.1065 1454.66,70.4398 1475.5,88.5C 1471.86,94.634 1468.03,100.634 1464,106.5C 1462.03,108.27 1459.7,109.27 1457,109.5C 1448.66,106.083 1440.5,102.25 1432.5,98C 1417.25,93.7811 1401.92,93.4478 1386.5,97C 1364.55,105.302 1351.71,121.135 1348,144.5C 1344.61,165.218 1348.28,184.552 1359,202.5C 1371.46,218.228 1387.79,225.895 1408,225.5C 1420.41,225.979 1432.08,223.313 1443,217.5C 1443.5,206.505 1443.67,195.505 1443.5,184.5C 1434.11,184.807 1424.78,184.473 1415.5,183.5C 1414.42,182.335 1413.58,181.002 1413,179.5C 1412.5,172.508 1412.33,165.508 1412.5,158.5C 1433.5,158.5 1454.5,158.5 1475.5,158.5C 1475.83,183.842 1475.5,209.175 1474.5,234.5C 1459.32,245.505 1442.32,251.672 1423.5,253C 1386.61,258.595 1355.77,247.762 1331,220.5C 1310.52,191.052 1305.52,159.052 1316,124.5C 1326.4,95.7709 1346.23,76.9375 1375.5,68C 1384.54,65.827 1393.54,64.327 1402.5,63.5 Z"/></g>
<g><path style="opacity:0.982" fill="#ff642d" d="M 649.5,65.5 C 661.221,65.1128 672.887,65.6128 684.5,67C 686.286,67.7845 687.786,68.9512 689,70.5C 701.811,113.42 714.145,156.42 726,199.5C 738.727,157.653 752.06,115.987 766,74.5C 769.346,67.3885 775.013,64.3885 783,65.5C 788.442,65.2768 793.442,66.6102 798,69.5C 812.934,112.635 827.267,155.968 841,199.5C 851.886,156.958 863.552,114.625 876,72.5C 878.463,68.684 881.963,66.5174 886.5,66C 895.827,65.5002 905.161,65.3335 914.5,65.5C 896.181,126.96 877.347,188.293 858,249.5C 852.746,250.807 847.246,251.474 841.5,251.5C 835.921,251.489 830.421,251.156 825,250.5C 810.865,205.761 796.531,161.094 782,116.5C 767.868,161.228 753.535,205.895 739,250.5C 728.228,251.819 717.395,251.819 706.5,250.5C 686.887,188.996 667.887,127.329 649.5,65.5 Z"/></g>
<g><path style="opacity:0.975" fill="#ff642d" d="M 962.5,117.5 C 980.943,114.814 997.109,119.481 1011,131.5C 1017.71,139.628 1021.71,148.961 1023,159.5C 1023.5,190.165 1023.67,220.832 1023.5,251.5C 1015.72,251.932 1008.05,251.432 1000.5,250C 997.993,245.839 996.16,241.339 995,236.5C 976.598,253.724 955.432,258.224 931.5,250C 916.932,241.352 911.099,228.519 914,211.5C 915.78,204.054 919.614,197.887 925.5,193C 937.528,184.658 950.861,179.658 965.5,178C 974.15,176.93 982.817,176.097 991.5,175.5C 993.103,146.285 980.103,136.785 952.5,147C 947.14,150.768 941.306,153.268 935,154.5C 929.04,154.217 925.04,151.217 923,145.5C 921.833,143.167 920.667,140.833 919.5,138.5C 931.621,126.939 945.954,119.939 962.5,117.5 Z M 990.5,195.5 C 991.656,202.989 991.822,210.655 991,218.5C 979.647,230.37 966.147,233.87 950.5,229C 944.452,223.644 942.952,217.144 946,209.5C 951.23,203.748 957.73,200.248 965.5,199C 973.948,197.578 982.282,196.412 990.5,195.5 Z"/></g>
<g><path style="opacity:0.975" fill="#ff642d" d="M 1228.5,117.5 C 1246.94,114.814 1263.11,119.481 1277,131.5C 1283.71,139.628 1287.71,148.961 1289,159.5C 1289.5,190.165 1289.67,220.832 1289.5,251.5C 1281.72,251.932 1274.05,251.432 1266.5,250C 1263.99,245.839 1262.16,241.339 1261,236.5C 1242.6,253.724 1221.43,258.224 1197.5,250C 1182.93,241.352 1177.1,228.519 1180,211.5C 1181.78,204.054 1185.61,197.887 1191.5,193C 1203.53,184.658 1216.86,179.658 1231.5,178C 1240.15,176.93 1248.82,176.097 1257.5,175.5C 1259.1,146.285 1246.1,136.785 1218.5,147C 1213.14,150.768 1207.31,153.268 1201,154.5C 1195.04,154.217 1191.04,151.217 1189,145.5C 1187.83,143.167 1186.67,140.833 1185.5,138.5C 1197.62,126.939 1211.95,119.939 1228.5,117.5 Z M 1256.5,195.5 C 1257.66,202.989 1257.82,210.655 1257,218.5C 1245.65,230.37 1232.15,233.87 1216.5,229C 1210.45,223.644 1208.95,217.144 1212,209.5C 1217.23,203.748 1223.73,200.248 1231.5,199C 1239.95,197.578 1248.28,196.412 1256.5,195.5 Z"/></g>
<g><path style="opacity:0.956" fill="#000000" d="M 1565.5,117.5 C 1572.69,116.945 1579.69,117.778 1586.5,120C 1587.73,120.779 1588.73,121.779 1589.5,123C 1587.95,131.152 1586.45,139.318 1585,147.5C 1583.7,149.815 1581.7,150.815 1579,150.5C 1560.17,145.1 1546.5,151.1 1538,168.5C 1537.5,196.165 1537.33,223.831 1537.5,251.5C 1526.5,251.5 1515.5,251.5 1504.5,251.5C 1504.5,207.5 1504.5,163.5 1504.5,119.5C 1513.25,119.09 1521.92,119.59 1530.5,121C 1531.89,122.171 1532.73,123.671 1533,125.5C 1533.68,130.925 1534.68,136.259 1536,141.5C 1542.76,129.559 1552.6,121.559 1565.5,117.5 Z"/></g>
<g><path style="opacity:0.963" fill="#000000" d="M 1648.5,117.5 C 1668.95,114.482 1686.12,120.482 1700,135.5C 1705.18,143.385 1708.18,152.051 1709,161.5C 1709.5,191.498 1709.67,221.498 1709.5,251.5C 1701.72,251.932 1694.05,251.432 1686.5,250C 1683.95,245.69 1681.78,241.19 1680,236.5C 1665.14,251.229 1647.31,256.729 1626.5,253C 1604.92,247.033 1596.08,232.866 1600,210.5C 1604.85,197.32 1614.02,188.486 1627.5,184C 1643.71,178.556 1660.38,175.723 1677.5,175.5C 1679.49,147.657 1667.16,137.823 1640.5,146C 1634.51,150.082 1628.01,152.915 1621,154.5C 1618.7,154.506 1616.53,154.006 1614.5,153C 1610.17,148.501 1607.34,143.335 1606,137.5C 1618.25,126.624 1632.42,119.957 1648.5,117.5 Z M 1675.5,195.5 C 1676.82,198.768 1677.49,202.435 1677.5,206.5C 1677.33,210.167 1677.17,213.833 1677,217.5C 1664.38,231.424 1649.71,234.424 1633,226.5C 1627.18,211.978 1632.01,203.144 1647.5,200C 1656.88,197.877 1666.21,196.377 1675.5,195.5 Z"/></g>
<g><path style="opacity:0.966" fill="#000000" d="M 1799.5,117.5 C 1817.46,116.391 1829.96,124.057 1837,140.5C 1850.52,120.985 1869.02,113.819 1892.5,119C 1911.02,124.175 1921.52,136.342 1924,155.5C 1924.5,187.498 1924.67,219.498 1924.5,251.5C 1913.83,251.5 1903.17,251.5 1892.5,251.5C 1892.67,221.831 1892.5,192.165 1892,162.5C 1889.26,147.034 1880.1,140.868 1864.5,144C 1855.47,146.876 1850.3,153.043 1849,162.5C 1848.5,192.165 1848.33,221.831 1848.5,251.5C 1837.5,251.5 1826.5,251.5 1815.5,251.5C 1815.67,220.498 1815.5,189.498 1815,158.5C 1812.78,148.274 1806.44,143.274 1796,143.5C 1786.8,143.935 1779.13,147.602 1773,154.5C 1772.5,186.832 1772.33,219.165 1772.5,251.5C 1761.5,251.5 1750.5,251.5 1739.5,251.5C 1739.5,207.5 1739.5,163.5 1739.5,119.5C 1747.92,119.094 1756.25,119.594 1764.5,121C 1765.33,121.833 1766.17,122.667 1767,123.5C 1768,127.167 1769,130.833 1770,134.5C 1777.83,125.134 1787.66,119.467 1799.5,117.5 Z"/></g>
<g><path style="opacity:0.977" fill="#ff642d" d="M 1033.5,119.5 C 1043.84,119.334 1054.17,119.5 1064.5,120C 1066.08,120.707 1067.58,121.54 1069,122.5C 1080.92,149.936 1092.26,177.603 1103,205.5C 1112.94,178.355 1123.27,151.355 1134,124.5C 1135.54,122.622 1137.38,121.122 1139.5,120C 1149.18,119.168 1158.85,119.335 1168.5,120.5C 1144.37,176.044 1120.54,231.71 1097,287.5C 1095.75,290.171 1093.92,292.337 1091.5,294C 1081.5,294.667 1071.5,294.667 1061.5,294C 1070.11,276.789 1078.44,259.455 1086.5,242C 1068.41,201.324 1050.74,160.491 1033.5,119.5 Z"/></g>
</svg>
